<?xml version="1.0" encoding="UTF-8"?>
<svg id="_Слой_1" data-name="Слой 1" xmlns="http://www.w3.org/2000/svg" xmlns:xlink="http://www.w3.org/1999/xlink" viewBox="0 0 2500 740.74">
  <defs>
    <style>
      .cls-1 {
        fill: #fff;
      }

      .cls-2 {
        fill: url(#_Безымянный_градиент);
      }

      .cls-3 {
        fill: #a6a6a6;
      }
    </style>
    <linearGradient id="_Безымянный_градиент" data-name="Безымянный градиент" x1="677.19" y1="822.52" x2="677.19" y2="858.56" gradientTransform="translate(-48383.02 61702.91) scale(74.15 -74.11)" gradientUnits="userSpaceOnUse">
      <stop offset="0" stop-color="#1a1a1a" stop-opacity=".1"/>
      <stop offset=".12" stop-color="#212121" stop-opacity=".15"/>
      <stop offset=".31" stop-color="#353535" stop-opacity=".23"/>
      <stop offset=".53" stop-color="#575757" stop-opacity=".32"/>
      <stop offset=".78" stop-color="#858585" stop-opacity=".42"/>
      <stop offset="1" stop-color="#b3b3b3" stop-opacity=".51"/>
    </linearGradient>
  </defs>
  <path class="cls-1" d="m2483.4,653.28c0,39.18-31.77,70.95-70.96,70.95-.03,0-.06,0-.08,0H87.62c-39.24.04-71.08-31.72-71.13-70.94V87.52c.05-39.24,31.88-71.03,71.13-71.04h2324.72c39.23,0,71.04,31.79,71.04,71.01v565.78Z"/>
  <path class="cls-3" d="m2412.36,740.74H87.62c-48.33-.01-87.53-39.14-87.62-87.45V87.55C.07,39.2,39.27.04,87.62,0h2324.72c48.35.06,87.53,39.21,87.62,87.55v565.74c.04,48.24-39.33,87.45-87.6,87.45h0Z"/>
  <path d="m2483.4,653.28c0,39.18-31.77,70.95-70.96,70.95-.03,0-.06,0-.08,0H87.62c-39.24.04-71.08-31.72-71.13-70.94V87.52c.05-39.24,31.88-71.03,71.13-71.04h2324.72c39.23,0,71.04,31.79,71.04,71.01v565.78Z"/>
  <path class="cls-1" d="m558.22,366.47c-.54-59.7,48.9-88.75,51.16-90.1-28-40.81-71.39-46.38-86.64-46.82-36.44-3.84-71.8,21.8-90.37,21.8s-47.52-21.44-78.33-20.8c-39.65.61-76.75,23.56-97.09,59.2-41.99,72.67-10.67,179.46,29.55,238.19,20.12,28.79,43.63,60.89,74.41,59.76,30.11-1.22,41.36-19.17,77.69-19.17s46.56,19.17,77.95,18.45c32.31-.5,52.66-28.9,72.08-57.93,23.25-32.95,32.59-65.44,32.96-67.11-.74-.26-62.74-23.93-63.37-95.47h0Zm-59.29-175.57c16.19-20.25,27.27-47.79,24.2-75.74-23.44,1.04-52.75,16.2-69.63,36.01-14.94,17.45-28.27,46.05-24.83,72.94,26.33,1.96,53.36-13.28,70.26-33.21Z"/>
  <path class="cls-2" d="m2412.36,0h-1245.2l487.72,740.74h757.48c48.34-.04,87.53-39.18,87.62-87.5V87.54c-.08-48.34-39.27-87.49-87.62-87.54Z"/>
  <path class="cls-1" d="m994.33,583.56h-42.08l-23.05-72.41h-80.12l-21.96,72.41h-40.96l79.39-246.51h49.03l79.74,246.51Zm-72.07-102.78l-20.85-64.37c-2.2-6.57-6.36-22.06-12.43-46.44h-.74c-2.45,10.49-6.36,25.97-11.71,46.43l-20.49,64.37h66.22Zm275.85,11.72c0,30.23-8.21,54.12-24.64,71.67-14.71,15.62-33,23.42-54.81,23.42-23.55,0-40.48-8.39-50.77-25.21v93.27h-39.5v-191.4c0-18.99-.5-38.46-1.46-58.43h34.74l2.2,28.18h.74c13.18-21.23,33.17-31.84,60-31.84,20.97,0,38.48,8.28,52.49,24.86,13.99,16.61,21.01,38.43,21.01,65.49h0Zm-40.25,1.44c0-17.3-3.89-31.56-11.71-42.81-8.54-11.69-20.01-17.55-34.38-17.55-9.75,0-18.61,3.26-26.51,9.69-7.93,6.48-13.12,14.95-15.55,25.44-1.08,3.92-1.7,7.96-1.84,12.02v29.65c0,12.92,3.97,23.82,11.9,32.75,7.93,8.89,18.23,13.36,30.9,13.36,14.88,0,26.46-5.76,34.75-17.19,8.3-11.47,12.45-26.58,12.45-45.37Zm244.74-1.44c0,30.23-8.21,54.12-24.64,71.67-14.73,15.62-33,23.42-54.83,23.42-23.55,0-40.48-8.39-50.77-25.21v93.27h-39.5v-191.4c0-18.99-.5-38.46-1.46-58.43h34.74l2.2,28.18h.74c13.15-21.23,33.15-31.84,59.99-31.84,20.95,0,38.46,8.28,52.51,24.86,13.97,16.61,21.01,38.43,21.01,65.49h0Zm-40.26,1.44c0-17.3-3.91-31.56-11.73-42.81-8.54-11.69-19.97-17.55-34.35-17.55-9.75,0-18.6,3.26-26.55,9.69-7.93,6.48-13.1,14.95-15.52,25.44-1.2,4.89-1.85,8.87-1.85,12.02v29.65c0,12.92,3.98,23.82,11.87,32.75,7.93,8.87,18.23,13.36,30.94,13.36,14.9,0,26.48-5.76,34.74-17.19,8.3-11.47,12.45-26.58,12.45-45.37h0Zm268.9,20.47c0,20.99-7.34,38.05-21.92,51.22-16.05,14.37-38.45,21.57-67.17,21.57-26.53,0-47.81-5.11-63.85-15.35l9.13-32.92c17.32,10.26,36.36,15.37,57.07,15.37,14.9,0,26.48-3.37,34.74-10.06,8.29-6.7,12.47-15.67,12.47-26.86,0-10.02-3.47-18.41-10.27-25.25-6.83-6.81-18.14-13.17-34.02-19-43.17-16.1-64.77-39.64-64.77-70.61,0-20.23,7.63-36.79,22.87-49.74,15.23-12.93,35.43-19.4,60.55-19.4,22.44,0,41.13,3.91,55.97,11.71l-9.91,32.19c-13.97-7.56-29.74-11.33-47.38-11.33-13.94,0-24.86,3.43-32.68,10.24-6.57,6.1-9.91,13.52-9.91,22.34,0,9.72,3.8,17.8,11.36,24.13,6.56,5.83,18.53,12.19,35.83,19,21.23,8.56,36.83,18.52,46.82,29.97,10.06,11.45,15.06,25.73,15.06,42.75h0Zm130.94-78.97h-43.54v86.3c0,21.95,7.67,32.9,23.05,32.9,7.06,0,12.92-.59,17.55-1.83l1.09,29.99c-7.78,2.91-18.03,4.37-30.72,4.37-15.6,0-27.8-4.76-36.6-14.28-8.76-9.52-13.17-25.47-13.17-47.92v-89.61h-25.94v-29.63h25.94v-32.55l38.8-11.71v44.26h43.54v29.71Zm196.07,57.78c0,27.31-7.82,49.75-23.42,67.29-16.32,18.06-38.04,27.06-65.11,27.06s-46.9-8.65-62.38-25.93c-15.49-17.31-23.24-39.14-23.24-65.46s8-50.11,23.96-67.65c15.99-17.56,37.52-26.34,64.59-26.34s47.05,8.67,62.91,25.97c15.15,16.78,22.69,38.46,22.69,65.06h0Zm-40.94.9c0-16.28-3.52-30.25-10.58-41.93-8.28-14.12-20.14-21.17-35.5-21.17s-27.96,7.06-36.22,21.17c-7.08,11.69-10.6,25.89-10.6,42.68s3.52,30.31,10.6,41.96c8.54,14.12,20.45,21.17,35.89,21.17s26.94-7.2,35.5-21.53c7.27-11.96,10.92-26.02,10.92-42.34h0Zm169.4-53.59c-4.11-.74-8.28-1.11-12.45-1.09-13.89,0-24.64,5.22-32.2,15.75-6.56,9.26-9.86,20.97-9.86,35.1v93.27h-39.5v-121.78c.04-18.66-.35-37.32-1.15-55.96h34.41l1.44,34.01h1.09c4.19-11.69,10.75-21.12,19.75-28.18,8.24-6.17,18.26-9.5,28.55-9.52,3.65,0,6.94.26,9.87.72l.04,37.68Zm176.67,45.74c.1,6-.38,12-1.44,17.91h-118.51c.44,17.56,6.19,31.01,17.19,40.27,9.99,8.26,22.9,12.41,38.76,12.41,17.55,0,33.56-2.78,47.95-8.39l6.19,27.39c-16.82,7.34-36.69,10.99-59.61,10.99-27.57,0-49.21-8.12-64.96-24.31-15.71-16.2-23.59-37.99-23.59-65.28s7.32-49.1,21.98-66.9c15.34-19.01,36.07-28.51,62.16-28.51s45.02,9.5,58.2,28.51c10.43,15.06,15.68,33.73,15.68,55.9h0Zm-37.67-10.25c.28-11.72-2.31-21.82-7.67-30.36-6.84-11-17.36-16.48-31.46-16.48-12.92,0-23.44,5.35-31.44,16.09-6.57,8.54-10.49,18.81-11.69,30.71l82.26.04ZM837.69,249.9c-10.99,0-20.5-.54-28.41-1.44v-119.18c11.07-1.71,22.25-2.55,33.44-2.52,45.31,0,66.17,22.28,66.17,58.61,0,41.9-24.64,64.54-71.2,64.54h0Zm6.63-107.86c-6.11,0-11.32.37-15.63,1.26v90.6c2.33.37,6.81.54,13.12.54,29.68,0,46.58-16.9,46.58-48.53,0-28.21-15.29-43.87-44.06-43.87h0Zm129.59,108.77c-25.53,0-42.08-19.06-42.08-44.94s16.9-46.2,43.53-46.2c25.16,0,42.08,18.16,42.08,44.77s-17.44,46.37-43.52,46.37Zm.74-76.94c-14.03,0-23.01,13.11-23.01,31.45s9.17,31.1,22.82,31.1,22.83-14.02,22.83-31.47-8.98-31.08-22.64-31.08h0Zm188.38-12.39l-27.33,87.36h-17.81l-11.32-37.93c-2.82-9.28-5.16-18.7-7.02-28.21h-.37c-1.43,9.52-4.13,19.06-7,28.21l-12.04,37.93h-17.99l-25.72-87.36h19.95l9.89,41.53c2.34,9.89,4.3,19.23,5.93,28.05h.37c1.43-7.36,3.76-16.54,7.19-27.86l12.41-41.69h15.82l11.88,40.81c2.75,9.48,5.1,19.08,7.02,28.77h.52c1.26-8.98,3.24-18.52,5.93-28.77l10.62-40.81,19.07-.02Zm100.61,87.36h-19.42v-50.16c0-15.45-5.93-23.19-17.62-23.19s-19.42,9.89-19.42,21.4v51.96h-19.42v-62.39c0-7.72-.19-16-.72-24.99h17.08l.91,13.48h.54c5.22-9.33,15.82-15.26,27.7-15.26,18.34,0,30.38,14.03,30.38,36.85l-.02,52.31Zm53.55,0h-19.44v-127.44h19.44v127.44Zm70.8,1.98c-25.51,0-42.08-19.06-42.08-44.94s16.9-46.2,43.51-46.2c25.18,0,42.08,18.16,42.08,44.77.02,27.31-17.44,46.37-43.5,46.37h0Zm.72-76.94c-14.03,0-23.01,13.11-23.01,31.45s9.19,31.1,22.81,31.1,22.82-14.02,22.82-31.47c.02-17.78-8.95-31.08-22.62-31.08h0Zm119.34,74.96l-1.41-10.06h-.52c-5.93,8.1-14.58,12.04-25.56,12.04-15.65,0-26.77-10.96-26.77-25.71,0-21.56,18.7-32.71,51.06-32.71v-1.61c0-11.5-6.09-17.26-18.14-17.26-8.61,0-16.18,2.17-22.82,6.48l-3.95-12.76c8.08-5.04,18.16-7.56,30-7.56,22.82,0,34.35,12.04,34.35,36.14v32.18c0,8.81.39,15.65,1.26,20.86l-17.51-.02Zm-2.67-43.51c-21.56,0-32.38,5.23-32.38,17.62,0,9.17,5.57,13.65,13.32,13.65,9.87,0,19.06-7.54,19.06-17.78v-13.49Zm113.21,43.51l-.91-14.03h-.54c-5.58,10.6-14.95,16.01-28.06,16.01-21.06,0-36.67-18.52-36.67-44.58s16.18-46.57,38.26-46.57c11.69,0,19.98,3.95,24.64,11.87h.39v-50.14h19.44v103.89c0,8.45.2,16.36.72,23.55h-17.29Zm-2.87-51.4c0-12.23-8.1-22.66-20.46-22.66-14.4,0-23.19,12.76-23.19,30.73s9.13,29.68,22.81,29.68c12.21,0,20.84-10.62,20.84-23.19v-14.56Zm142.67,53.38c-25.51,0-42.06-19.06-42.06-44.93s16.9-46.2,43.5-46.2c25.19,0,42.08,18.16,42.08,44.77.01,27.31-17.42,46.37-43.53,46.37h0Zm.72-76.94c-14.01,0-23,13.12-23,31.45s9.17,31.1,22.81,31.1,22.82-14.02,22.82-31.47c.04-17.78-8.94-31.08-22.64-31.08h0Zm147.23,74.97h-19.44v-50.16c0-15.45-5.93-23.19-17.62-23.19s-19.4,9.89-19.4,21.4v51.96h-19.44v-62.39c0-7.72-.19-16-.72-24.99h17.08l.91,13.48h.54c5.21-9.33,15.82-15.28,27.69-15.28,18.34,0,30.4,14.02,30.4,36.84v52.33Zm130.65-72.8h-21.37v42.42c0,10.8,3.74,16.19,11.3,16.19,3.43,0,6.3-.37,8.62-.91l.54,14.75c-3.76,1.44-8.8,2.17-15.06,2.17-15.31,0-24.46-8.45-24.46-30.56v-44.05h-12.75v-14.56h12.75v-16.01l19.06-5.76v21.75h21.36v14.58Zm102.79,72.8h-19.4v-49.79c0-15.63-5.91-23.55-17.62-23.55-10.06,0-19.44,6.84-19.44,20.68v52.66h-19.4v-127.44h19.4v52.48h.39c6.11-9.52,14.97-14.21,26.27-14.21,18.49,0,29.79,14.37,29.79,37.22v51.96Zm105.32-39.01h-58.27c.37,16.54,11.32,25.88,27.53,25.88,8.62,0,16.55-1.44,23.55-4.13l3.02,13.49c-8.26,3.59-17.99,5.39-29.31,5.39-27.33,0-43.5-17.27-43.5-44.03s16.56-46.93,41.32-46.93c22.32,0,36.33,16.54,36.33,41.53.13,2.95-.1,5.9-.67,8.8h0Zm-17.81-13.83c0-13.49-6.81-23.01-19.21-23.01-11.16,0-19.98,9.71-21.24,23.01h40.45Z"/>
</svg>