<svg width="27" height="19" viewBox="0 0 27 19" fill="none" xmlns="http://www.w3.org/2000/svg">
<g clip-path="url(#clip0_325_2538)">
<path d="M5.41774 14.374C6.35877 15.6059 7.62955 16.3114 9.06969 16.7849C8.6132 17.364 8.18923 17.9144 7.74844 18.4499C7.68339 18.528 7.53421 18.574 7.42654 18.5694C5.16762 18.4729 3.15995 17.7524 1.53811 16.0701C1.1433 15.661 0.955995 15.2313 0.980671 14.6176C1.14779 10.505 2.22229 6.65202 4.04826 3.0082C4.19295 2.71978 4.49915 2.48766 4.77731 2.3038C6.35541 1.26156 8.0681 0.589331 9.95352 0.434201C10.1543 0.418114 10.3618 0.479016 10.5682 0.583585C8.62329 1.18916 6.7704 1.91655 5.17772 3.23458C10.9237 0.674364 16.6484 0.709987 22.3562 3.36098L22.4011 3.25871C21.865 2.92317 21.3423 2.56235 20.7905 2.25783C20.2364 1.95217 19.6621 1.67983 19.08 1.43507C18.4889 1.18687 17.8765 0.990369 17.2417 0.666321C17.4414 0.599673 17.6432 0.466376 17.8384 0.477867C19.9369 0.604269 21.8033 1.39141 23.507 2.6198C23.6035 2.6899 23.6943 2.79102 23.7481 2.89904C25.6358 6.65777 26.7585 10.6256 26.8853 14.8704C26.8942 15.1887 26.8056 15.4128 26.5847 15.6438C24.8877 17.4157 22.8038 18.2729 20.417 18.4534C20.0962 18.4775 19.8808 18.381 19.6891 18.1178C19.3402 17.6398 18.9623 17.1836 18.5618 16.6757C20.0536 16.1747 21.3591 15.5139 22.3349 14.289C16.7089 17.6191 11.0796 17.3376 5.41662 14.3729L5.41774 14.374ZM12.0621 10.7578C12.0588 9.44435 11.0639 8.36879 9.84808 8.36419C8.56497 8.35959 7.51851 9.46159 7.53309 10.8026C7.54655 12.0896 8.56609 13.1617 9.7864 13.1709C11.0527 13.1812 12.0655 12.1068 12.0621 10.7578ZM15.6625 10.7934C15.6692 12.1195 16.6899 13.1824 17.9427 13.1686C19.1888 13.1548 20.2117 12.0528 20.1927 10.7474C20.1736 9.43976 19.1563 8.36189 17.9438 8.36534C16.6674 8.36879 15.6558 9.4455 15.6625 10.7934Z" fill="white"/>
</g>
<defs>
<clipPath id="clip0_325_2538">
<rect width="25.9091" height="18.1364" fill="white" transform="translate(0.977539 0.431641)"/>
</clipPath>
</defs>
</svg>
