<?xml version="1.0" encoding="UTF-8"?>
<svg id="_Слой_1" data-name="Слой 1" xmlns="http://www.w3.org/2000/svg" viewBox="0 0 2025 600">
  <defs>
    <style>
      .cls-1 {
        fill: #fff;
      }

      .cls-2 {
        fill: #a6a6a6;
      }

      .cls-3 {
        fill: #fbbc04;
      }

      .cls-4 {
        fill: #4285f4;
      }

      .cls-5 {
        fill: #34a853;
      }

      .cls-6 {
        fill: #ea4335;
      }
    </style>
  </defs>
  <path d="m1950,600H75c-41.25,0-75-33.75-75-75V75C0,33.75,33.75,0,75,0h1875c41.25,0,75,33.75,75,75v450c0,41.25-33.75,75-75,75Z"/>
  <path class="cls-2" d="m1950,12c34.79,0,63,28.21,63,63v450c0,34.79-28.21,63-63,63H75c-34.79,0-63-28.21-63-63h0V75c0-34.79,28.21-63,63-63h1875Zm0-12H75C33.75,0,0,33.75,0,75v450c0,41.25,33.75,75,75,75h1875c41.25,0,75-33.75,75-75V75c0-41.25-33.75-75-75-75Z"/>
  <g>
    <path class="cls-1" d="m711.3,153.6c0,12.6-3.75,22.65-11.25,30-8.4,8.85-19.35,13.35-33,13.35s-24.15-4.5-33.15-13.5-13.5-20.25-13.5-33.45,4.5-24.45,13.5-33.45,20.1-13.65,33.15-13.65c6.6,0,12.9,1.2,18.75,3.45,5.85,2.4,10.65,5.7,14.4,9.9l-8.25,8.25c-2.7-3.3-6.3-6-10.8-7.8-4.45-1.93-9.25-2.91-14.1-2.85-9.75,0-18.15,3.45-24.9,10.2-6.75,6.9-10.05,15.45-10.05,25.8s3.3,18.9,10.05,25.8c6.75,6.75,15,10.2,24.9,10.2,9,0,16.35-2.55,22.35-7.5s9.45-12,10.35-20.7h-32.7v-10.8h43.65c.3,2.4.6,4.65.6,6.75Zm69.15-48.6v11.1h-40.95v28.5h36.9v10.8h-36.9v28.5h40.95v11.1h-52.5v-90h52.5Zm48.75,11.1v78.9h-11.55v-78.9h-25.2v-11.1h61.8v11.1h-25.05Zm81.45,78.9h-11.55v-90h11.55v90Zm51.3-78.9v78.9h-11.55v-78.9h-25.2v-11.1h61.8v11.1h-25.05Zm155.4,33.9c0,13.35-4.5,24.45-13.35,33.45-9,9-19.95,13.5-33,13.5s-24-4.5-33-13.5c-8.85-9-13.35-20.1-13.35-33.45s4.5-24.45,13.35-33.45,19.8-13.65,33-13.65,24,4.5,33,13.65,13.35,20.25,13.35,33.45Zm-80.7,0c0,10.35,3.3,19.05,9.75,25.8,6.6,6.75,14.85,10.2,24.6,10.2s18-3.45,24.45-10.2c6.6-6.75,9.9-15.3,9.9-25.8s-3.3-19.05-9.9-25.8-14.7-10.2-24.45-10.2-18,3.45-24.6,10.2c-6.45,6.75-9.75,15.45-9.75,25.8Zm108.45,45h-11.55v-90h14.1l43.8,70.05h.45l-.45-17.4v-52.65h11.55v90h-12l-45.75-73.35h-.45l.45,17.4v55.95h-.15Z"/>
    <path class="cls-1" d="m1071,198.45c-13.35,0-24.81-4.69-34.06-13.94-9.15-9.31-13.79-20.92-13.79-34.51s4.64-25.2,13.78-34.5c9.2-9.35,20.66-14.1,34.07-14.1s24.87,4.74,34.07,14.1c9.27,9.43,13.78,20.71,13.78,34.5s-4.64,25.2-13.78,34.5c-9.26,9.26-20.72,13.95-34.07,13.95Zm0-94.05c-12.57,0-23.32,4.44-31.93,13.2-8.57,8.72-12.92,19.62-12.92,32.4s4.35,23.68,12.92,32.4c8.78,8.78,19.23,13.05,31.93,13.05s23.15-4.27,31.94-13.06c8.56-8.71,12.91-19.61,12.91-32.39s-4.23-23.56-12.92-32.4c-8.74-8.88-19.18-13.2-31.93-13.2Zm-403.95,94.05c-13.45,0-24.96-4.69-34.21-13.94s-13.94-20.86-13.94-34.51,4.69-25.26,13.94-34.51c9.35-9.35,20.86-14.09,34.21-14.09,6.67,0,13.16,1.19,19.29,3.55,6.07,2.49,11.1,5.95,14.98,10.3l.94,1.06-10.42,10.42-1.05-1.28c-2.65-3.23-6.08-5.71-10.2-7.36-4.32-1.88-8.86-2.79-13.53-2.74-9.36,0-17.38,3.28-23.86,9.76-6.46,6.61-9.61,14.7-9.61,24.74s3.15,18.13,9.62,24.75c6.56,6.56,14.35,9.75,23.83,9.75,8.56,0,15.56-2.34,21.4-7.16,5.27-4.34,8.49-10.41,9.61-18.04h-32.5v-13.8h46.47l.22,1.76c.29,2.28.56,4.42.56,6.49,0,13.01-3.94,23.46-11.7,31.07-8.66,9.13-20.13,13.78-34.05,13.78Zm0-94.05c-12.53,0-23.32,4.44-32.09,13.21-8.67,8.67-13.06,19.56-13.06,32.39s4.39,23.72,13.06,32.39c8.67,8.67,19.46,13.06,32.09,13.06s23.8-4.33,31.91-12.88c7.2-7.06,10.84-16.79,10.84-28.97,0-1.62-.19-3.39-.42-5.25h-40.83v7.8h32.86l-.17,1.65c-.95,9.23-4.62,16.53-10.89,21.7-6.4,5.28-14.02,7.84-23.3,7.84-10.17,0-18.9-3.58-25.96-10.64-6.96-7.12-10.49-16.15-10.49-26.86s3.52-19.74,10.48-26.85c7.07-7.07,15.81-10.65,25.97-10.65,5.08-.06,10.03.94,14.7,2.97,4.02,1.61,7.48,3.95,10.28,6.98l6.09-6.09c-3.44-3.53-7.77-6.38-12.88-8.48-5.75-2.21-11.88-3.34-18.18-3.34Zm537.45,92.1h-14.33l-43.75-70.14.33,12.65v57.49s-14.7,0-14.7,0v-93h16.43l41.8,66.85-.33-12.66v-54.19s14.55,0,14.55,0v93Zm-12.67-3h9.67v-87h-8.55v51.15l.49,18.9h-2.82l-43.8-70.05h-11.77v87h8.7v-54.45l-.49-18.9h2.82l45.75,73.35Zm-228.38,3h-14.55v-78.9h-25.2v-14.1h64.8v14.1h-25.05v78.9Zm-11.55-3h8.55v-78.9h25.05v-8.1h-58.8v8.1h25.2v78.9Zm-39.75,3h-14.55v-93h14.55v93Zm-11.55-3h8.55v-87h-8.55v87Zm-69.9,3h-14.55v-78.9h-25.2v-14.1h64.8v14.1h-25.05v78.9Zm-11.55-3h8.55v-78.9h25.05v-8.1h-58.8v8.1h25.2v78.9Zm-37.2,3h-55.5v-93h55.5v14.1h-40.95v25.5h36.9v13.8h-36.9v25.5h40.95v14.1Zm-52.5-3h49.5v-8.1h-40.95v-31.5h36.9v-7.8h-36.9v-31.5h40.95v-8.1h-49.5v87Zm341.55-6c-10.12,0-18.76-3.58-25.67-10.65-6.76-7.07-10.18-16.1-10.18-26.85s3.42-19.78,10.17-26.84c6.92-7.08,15.56-10.66,25.68-10.66s18.61,3.58,25.52,10.65c6.85,7.01,10.33,16.04,10.33,26.85s-3.47,19.84-10.33,26.85c-6.75,7.06-15.34,10.65-25.52,10.65Zm0-72c-9.29,0-17.2,3.28-23.53,9.75-6.18,6.47-9.32,14.8-9.32,24.75s3.14,18.28,9.33,24.76c6.31,6.46,14.23,9.74,23.52,9.74s17.19-3.28,23.37-9.74c6.39-6.53,9.48-14.63,9.48-24.76s-3.1-18.23-9.47-24.75c-6.42-6.56-14.06-9.75-23.38-9.75Z"/>
  </g>
  <path class="cls-1" d="m1022.1,326.25c-35.25,0-64.05,26.85-64.05,63.75s28.8,63.75,64.05,63.75,64.05-27,64.05-63.75-28.8-63.75-64.05-63.75Zm0,102.45c-19.35,0-36-15.9-36-38.7s16.65-38.7,36-38.7,36,15.75,36,38.7-16.8,38.7-36,38.7Zm-139.8-102.45c-35.25,0-64.05,26.85-64.05,63.75s28.8,63.75,64.05,63.75,64.05-27,64.05-63.75-28.8-63.75-64.05-63.75h0Zm0,102.45c-19.35,0-36-15.9-36-38.7s16.65-38.7,36-38.7,36,15.75,36,38.7-16.65,38.7-36,38.7Zm-166.2-82.8v27h64.8c-1.95,15.15-7.05,26.4-14.7,34.05-9.45,9.45-24.15,19.8-49.95,19.8-39.9,0-71.1-32.1-71.1-72s31.2-72,71.1-72c21.45,0,37.2,8.4,48.75,19.35l19.05-19.05c-16.2-15.45-37.65-27.3-67.95-27.3-54.6,0-100.5,44.4-100.5,99.15s45.9,99.15,100.5,99.15c29.55,0,51.75-9.6,69.15-27.75,17.85-17.85,23.4-43.05,23.4-63.3,0-6.3-.45-12.15-1.5-16.95h-91.05v-.15Zm679.65,21c-5.25-14.25-21.45-40.65-54.6-40.65s-60.15,25.8-60.15,63.75c0,35.7,27,63.75,63.3,63.75,29.25,0,46.2-17.85,53.1-28.2l-21.75-14.55c-7.2,10.65-17.1,17.7-31.35,17.7s-24.45-6.45-30.9-19.35l85.35-35.25-3-7.2Zm-87,21.3c-.75-24.6,19.05-37.2,33.3-37.2,11.1,0,20.55,5.55,23.7,13.5l-57,23.7Zm-69.3,61.8h28.05v-187.5h-28.05v187.5Zm-45.9-109.5h-1.05c-6.3-7.5-18.3-14.25-33.6-14.25-31.95,0-61.2,28.05-61.2,64.05s29.25,63.6,61.2,63.6c15.15,0,27.3-6.75,33.6-14.55h.9v9.15c0,24.45-13.05,37.5-34.05,37.5-17.1,0-27.75-12.3-32.1-22.65l-24.45,10.2c7.05,16.95,25.65,37.65,56.55,37.65,32.85,0,60.6-19.35,60.6-66.45v-114.6h-26.55v10.35h.15Zm-32.25,88.2c-19.35,0-35.55-16.2-35.55-38.4s16.2-38.85,35.55-38.85,34.05,16.5,34.05,38.85c.15,22.2-14.85,38.4-34.05,38.4Zm365.85-166.2h-67.05v187.5h28.05v-71.1h39.15c31.05,0,61.5-22.5,61.5-58.2-.15-35.7-30.75-58.2-61.65-58.2h0Zm.6,90.3h-39.75v-64.35h39.75c21,0,32.85,17.4,32.85,32.1s-11.85,32.25-32.85,32.25Zm173.1-26.85c-20.25,0-41.25,9-49.95,28.65l24.9,10.35c5.25-10.35,15.15-13.8,25.5-13.8,14.4,0,29.25,8.7,29.4,24.15v1.95c-5.1-2.85-15.9-7.2-29.25-7.2-26.85,0-54,14.7-54,42.15,0,25.05,21.9,41.25,46.5,41.25,18.75,0,29.25-8.4,35.7-18.3h.9v14.4h27v-71.85c.15-33.15-24.75-51.75-56.7-51.75Zm-3.45,102.75c-9.15,0-21.9-4.65-21.9-15.9,0-14.4,15.9-19.95,29.7-19.95,12.3,0,18.15,2.7,25.5,6.3-2.15,16.79-16.37,29.41-33.3,29.55h0Zm158.7-98.7l-32.1,81.3h-.9l-33.3-81.3h-30.15l49.95,113.7-28.5,63.15h29.25l76.95-176.85h-31.2Zm-252,120h28.05v-187.5h-28.05v187.5Z"/>
  <path class="cls-6" d="m310.8,291.3l-159.75,169.5v.15c6.2,23.01,29.88,36.65,52.89,30.45,3.76-1.01,7.36-2.53,10.71-4.5l.45-.3,179.7-103.65-84-91.65Z"/>
  <path class="cls-3" d="m472.35,262.5l-.15-.15-77.55-45-87.45,77.85,87.75,87.75,77.25-44.55c20.98-11.36,28.78-37.57,17.43-58.56-3.97-7.33-9.97-13.35-17.28-17.34h0Z"/>
  <path class="cls-4" d="m151.05,139.2c-.9,3.6-1.5,7.2-1.5,11.1v299.55c0,3.9.45,7.5,1.5,11.1l165.15-165.15-165.15-156.6Z"/>
  <path class="cls-5" d="m312,300l82.65-82.65-179.55-104.1c-20.54-12.28-47.15-5.59-59.43,14.95-2.03,3.39-3.58,7.04-4.62,10.85l160.95,160.95Z"/>
</svg>