<svg width="27" height="27" viewBox="0 0 27 27" fill="none" xmlns="http://www.w3.org/2000/svg">
<path d="M25.7012 13.5031C25.6631 15.2449 25.6429 17.0025 25.579 18.7578C25.5341 19.9781 25.2683 21.1592 24.6525 22.2292C23.6767 23.9262 22.1895 24.9199 20.2805 25.2699C19.6109 25.3932 18.9234 25.4527 18.2414 25.4751C15.286 25.5727 12.3306 25.5693 9.37512 25.4751C8.30175 25.4415 7.23734 25.3293 6.22341 24.9334C4.49838 24.2615 3.31509 23.0524 2.64885 21.3319C2.26975 20.3516 2.13516 19.3231 2.10263 18.2823C2.00281 15.0879 2.00169 11.8936 2.10263 8.69925C2.13852 7.57653 2.28994 6.46838 2.74195 5.42753C3.58091 3.49613 5.04685 2.30274 7.08368 1.79577C7.72861 1.63538 8.38587 1.56023 9.04649 1.5378C12.252 1.42676 15.4587 1.42564 18.6654 1.5378C19.6602 1.57257 20.6428 1.71502 21.5726 2.09412C23.3593 2.82204 24.5493 4.11525 25.164 5.93898C25.4253 6.71177 25.5599 7.51035 25.5823 8.32239C25.6317 10.0441 25.6608 11.7668 25.699 13.5042L25.7012 13.5031ZM23.5915 13.5109C23.5724 13.5109 23.5522 13.5109 23.5332 13.5109C23.5332 12.1987 23.5432 10.8875 23.5298 9.57523C23.5219 8.78898 23.4894 8.00162 23.3279 7.22659C22.951 5.43202 21.8866 4.29471 20.0932 3.86738C19.3462 3.68904 18.5779 3.65764 17.8152 3.65315C15.1794 3.63745 12.5437 3.63745 9.90789 3.65315C9.16875 3.65764 8.424 3.69128 7.6972 3.8528C6.05068 4.21844 4.96048 5.18863 4.49053 6.82393C4.32229 7.40829 4.23368 8.00835 4.22695 8.61289C4.19891 11.3732 4.17424 14.1334 4.17648 16.8937C4.17648 17.7921 4.20452 18.6939 4.3537 19.5878C4.66999 21.4755 5.82412 22.7193 7.67701 23.1399C8.47223 23.3205 9.28428 23.3474 10.0918 23.353C12.602 23.3721 15.1121 23.371 17.6223 23.353C18.3951 23.3474 19.1724 23.3183 19.9362 23.1612C21.6152 22.8158 22.7458 21.8557 23.2169 20.1901C23.3492 19.7224 23.4412 19.23 23.4591 18.7444C23.5253 17.0014 23.5511 15.2562 23.5926 13.5109H23.5915Z" fill="white"/>
<path d="M7.82227 13.837C7.81779 10.8065 9.55852 8.39389 12.0676 7.62222C14.8043 6.77989 17.6789 7.9273 19.1 10.4487C20.8262 13.5095 19.6676 17.4026 16.5641 18.9953C13.8285 20.3996 10.4435 19.4641 8.7891 16.8418C8.14642 15.8223 7.82115 14.7108 7.82227 13.8382V13.837ZM13.8632 17.4901C15.964 17.5305 17.7933 15.7225 17.7855 13.5017C17.7776 11.2955 16.038 9.5054 13.8711 9.49194C11.7086 9.47848 9.91295 11.3056 9.92977 13.5107C9.9466 15.8615 11.8713 17.5417 13.8632 17.4901Z" fill="white"/>
<path d="M20.2999 5.48831C21.0985 5.49279 21.7412 6.14893 21.7378 6.95649C21.7344 7.75956 21.0817 8.42467 20.2921 8.42803C19.4879 8.43252 18.8306 7.75283 18.8429 6.93181C18.8553 6.11192 19.489 5.48382 20.2999 5.48831Z" fill="white"/>
</svg>
