<svg width="24" height="20" viewBox="0 0 24 20" fill="none" xmlns="http://www.w3.org/2000/svg">
<g clip-path="url(#clip0_325_2532)">
<path d="M23.5646 2.85315C23.4173 3.94101 23.2593 5.35604 23.0276 6.75938C22.4383 10.3303 21.8205 13.8965 21.1979 17.4615C21.1207 17.9055 20.9816 18.3495 20.7999 18.7632C20.4375 19.5881 19.8696 19.8545 18.9915 19.5869C18.5436 19.4502 18.1076 19.2271 17.7155 18.97C15.7277 17.6695 13.7531 16.3491 11.7796 15.0275C11.5146 14.8499 11.2592 14.6466 11.0394 14.4176C10.62 13.9841 10.5713 13.5331 10.9586 13.0762C11.4065 12.548 11.9115 12.0619 12.4164 11.5829C14.1262 9.96101 15.8466 8.35202 17.5598 6.73484C17.6905 6.61098 17.8307 6.47894 17.908 6.32354C17.965 6.20786 17.9816 6.00337 17.9139 5.91691C17.8438 5.8281 17.6287 5.77669 17.5123 5.81291C17.2901 5.88302 17.0834 6.01623 16.885 6.14593C14.2295 7.88112 11.5764 9.61982 8.92215 11.3573C8.71185 11.4952 8.50037 11.6308 8.28651 11.764C7.42987 12.3003 6.50669 12.527 5.51223 12.2489C4.2041 11.8843 2.90548 11.4882 1.60567 11.0968C1.44765 11.0489 1.29557 10.9624 1.1625 10.8654C0.77873 10.5885 0.732393 10.1889 1.08527 9.88039C1.34428 9.65604 1.64725 9.4574 1.96448 9.32419C7.87779 6.85169 13.7923 4.38152 19.7151 1.93239C20.4482 1.62859 21.2181 1.3832 21.9951 1.21845C23.1108 0.981248 23.5682 1.40073 23.5646 2.85315Z" fill="white"/>
</g>
<defs>
<clipPath id="clip0_325_2532">
<rect width="23.3182" height="19.4318" fill="white" transform="translate(0.545898 0.431641)"/>
</clipPath>
</defs>
</svg>
